<?xml version="1.0" standalone="no"?>
<!DOCTYPE svg PUBLIC "-//W3C//DTD SVG 20010904//EN"
 "http://www.w3.org/TR/2001/REC-SVG-20010904/DTD/svg10.dtd">
<svg version="1.0" xmlns="http://www.w3.org/2000/svg"
 width="1024.000000pt" height="1024.000000pt" viewBox="0 0 1024.000000 1024.000000"
 preserveAspectRatio="xMidYMid meet">
<metadata>
Created by potrace 1.11, written by Peter Selinger 2001-2013
</metadata>
<g transform="translate(0.000000,1024.000000) scale(0.100000,-0.100000)"
fill="#000000" stroke="none">
<path d="M5633 9134 c-18 -9 -42 -31 -54 -50 -15 -25 -115 -345 -154 -494 -11
-42 -100 -349 -115 -395 -11 -37 -132 -454 -170 -590 -16 -55 -38 -131 -50
-170 -12 -38 -23 -77 -25 -85 -2 -8 -16 -55 -30 -105 -14 -49 -27 -97 -29
-105 -3 -8 -16 -55 -31 -105 -15 -49 -51 -173 -80 -275 -29 -102 -74 -257
-100 -345 -26 -88 -89 -308 -141 -490 -53 -181 -113 -388 -134 -460 -21 -71
-45 -155 -53 -185 -9 -30 -43 -149 -77 -265 -34 -115 -65 -223 -69 -240 -12
-46 -240 -831 -263 -905 -11 -36 -21 -72 -23 -80 -2 -8 -20 -71 -40 -140 -20
-69 -40 -138 -45 -155 -4 -16 -38 -133 -75 -260 -102 -350 -165 -568 -170
-585 -6 -26 -63 -222 -93 -325 -17 -55 -37 -125 -45 -155 -8 -30 -38 -134 -67
-230 -28 -96 -56 -193 -61 -215 -6 -22 -17 -59 -24 -83 -46 -135 -13 -212 109
-251 70 -22 87 -27 371 -111 200 -59 265 -78 505 -151 133 -40 196 -42 244 -6
65 50 57 28 221 597 42 146 92 318 111 383 19 64 50 172 69 240 19 67 39 136
44 152 6 17 23 77 40 135 16 58 80 278 141 490 61 212 140 484 175 605 35 121
84 292 110 380 26 88 75 259 110 380 35 121 80 276 100 345 21 69 41 139 45
155 4 17 38 134 75 260 37 127 69 237 71 245 2 8 24 85 49 170 25 85 47 162
49 170 3 8 24 85 49 170 25 85 74 256 110 380 36 124 86 295 111 380 48 168
117 404 221 765 76 263 264 913 306 1057 35 122 32 178 -12 224 -33 34 -53 41
-374 134 -99 29 -200 59 -225 66 -491 149 -542 160 -607 128z"/>
<path d="M2555 7444 c-6 -1 -22 -5 -36 -8 -39 -8 -89 -52 -388 -336 -15 -14
-96 -90 -181 -170 -85 -79 -182 -170 -215 -201 -33 -32 -76 -72 -95 -89 -19
-18 -95 -89 -169 -159 -73 -69 -141 -133 -151 -141 -9 -8 -77 -72 -151 -141
-74 -69 -152 -143 -174 -163 -22 -21 -98 -92 -169 -159 -71 -67 -138 -130
-150 -140 -11 -10 -55 -51 -96 -90 -148 -141 -356 -335 -388 -363 -59 -51 -94
-110 -94 -159 0 -72 15 -90 302 -355 19 -18 91 -85 160 -150 69 -65 141 -132
160 -150 19 -18 67 -62 105 -99 61 -57 243 -227 364 -340 20 -19 95 -89 166
-156 72 -67 146 -138 166 -156 20 -19 96 -90 170 -159 73 -69 147 -138 165
-155 17 -16 85 -80 150 -141 66 -61 135 -126 154 -144 19 -18 90 -85 158 -149
68 -64 140 -126 160 -138 82 -49 154 -32 237 58 110 119 438 470 531 569 105
111 171 186 182 207 6 10 13 35 16 57 9 53 -23 104 -110 181 -130 114 -171
150 -205 180 -19 16 -56 50 -84 74 -27 24 -79 70 -115 101 -63 56 -451 396
-580 510 -217 191 -340 298 -369 323 -19 16 -30 32 -25 36 5 5 54 48 109 96
55 49 134 118 174 154 84 74 161 142 212 186 78 68 333 293 363 320 6 6 45 39
86 75 41 36 80 70 86 75 11 11 122 108 214 189 223 197 240 215 245 282 5 61
-20 93 -351 444 -29 30 -66 71 -84 90 -298 325 -359 385 -406 397 -22 5 -44 9
-49 7z"/>
<path d="M7679 7440 c-41 -12 -72 -31 -104 -65 -61 -64 -264 -281 -295 -315
-39 -43 -116 -125 -280 -299 -146 -155 -180 -206 -173 -259 10 -71 14 -76 238
-272 66 -58 122 -107 125 -110 3 -3 39 -34 80 -70 41 -36 77 -67 80 -70 7 -8
217 -193 420 -370 91 -79 167 -147 170 -150 5 -5 46 -41 255 -224 38 -34 82
-73 99 -87 l29 -26 -34 -30 c-19 -17 -77 -68 -129 -114 -52 -45 -97 -85 -100
-88 -3 -4 -93 -83 -200 -176 -107 -93 -197 -172 -200 -175 -8 -8 -151 -133
-184 -161 -16 -13 -36 -31 -45 -40 -9 -8 -90 -80 -181 -160 -227 -198 -220
-192 -244 -214 -12 -11 -48 -42 -79 -69 -74 -64 -100 -105 -99 -161 2 -64 16
-84 216 -295 39 -42 103 -110 141 -151 232 -249 346 -370 391 -415 75 -77 147
-90 221 -40 34 24 132 113 453 416 69 65 141 132 160 150 19 18 94 88 165 155
158 148 191 180 470 440 17 17 88 83 156 147 69 64 138 129 155 144 16 15 68
63 115 108 238 225 367 346 394 370 143 130 279 266 292 291 21 39 19 109 -3
143 -17 27 -76 86 -211 212 -38 36 -134 126 -213 200 -79 74 -156 146 -171
160 -85 79 -409 383 -474 445 -17 17 -89 84 -160 150 -148 138 -159 148 -320
300 -66 62 -136 127 -155 145 -19 18 -89 83 -155 145 -66 62 -139 130 -161
151 -23 22 -99 93 -169 159 -122 115 -196 174 -219 176 -6 0 -18 2 -26 3 -8 2
-27 0 -41 -4z"/>
</g>
</svg>
